<svg xmlns="http://www.w3.org/2000/svg" version="1.1" xmlns:xlink="http://www.w3.org/1999/xlink"
     xmlns:svgjs="http://svgjs.com/svgjs" height="63" width="183.73001098632812">
    <g id="SvgjsG1055" rel="mainfill" name="main_text" xmlns:name="mainText_mainfill"
       transform="translate(98.76000785827637,-4.575997352600098)">
        <path fill="#ffffff"
              d="M9.628 58 l-5.278 0 l0 -43.326 l5.278 0 l0 19.14 l9.802 0 l0 -19.14 l5.278 0 l0 43.326 l-5.278 0 l0 -19.14 l-9.802 0 l0 19.14 z M6.728 17.052 l0 38.744 l0.522 0 l0 -19.198 l14.558 0 l0 19.198 l0.522 0 l0 -38.918 l-0.522 0 l0 19.198 l-14.558 0 l0 -19.024 l-0.522 0 z M51.388000000000005 21.634 l0 28.536 l-4.93 5.22 l-5.916 0 l-4.872 -5.22 l0 -28.536 l4.872 -4.872 l5.916 0 z M54.230000000000004 20.531999999999996 l0 30.682 l-6.554 6.96 l-8.352 0 l-6.496 -6.96 l0 -30.682 l6.554 -6.554 l8.294 0 z M51.91 50.344 l0 -28.884 l-5.22 -5.22 l-6.38 0 l-5.162 5.22 l0 28.884 l5.162 5.568 l6.38 0 z M45.414 52.954 l3.538 -3.77 l0 -26.506 l-3.48 -3.48 l-3.944 0 l-3.48 3.48 l0 26.506 l3.538 3.77 l3.828 0 z M67.802 19.894 l0 18.212 l5.278 0 l3.596 -3.886 l0 -10.788 l-3.538 -3.538 l-5.336 0 z M67.802 43.384 l0 14.616 l-5.278 0 l0 -43.442 l12.76 0 l6.67 6.728 l0 15.022 l-4.698 5.046 l7.714 16.646 l-5.8 0 l-6.786 -14.616 l-4.582 0 z M64.902 16.936 l0 38.86 l0.522 0 l0 -14.79 l8.468 0 l6.844 14.79 l0.58 0 l-6.902 -14.906 l5.162 -5.51 l0 -13.108 l-5.278 -5.336 l-9.396 0 z M74.066 17.516 l4.988 4.93 l0 12.702 l-4.988 5.336 l-8.642 0 l0 -22.968 l8.642 0 z"></path>
    </g>
    <defs id="SvgjsDefs1054"></defs>
    <g id="SvgjsG1056" rel="mainfill" name="monogram" xmlns:name="monogram_mainfill"
       transform="translate(-1.7999954223632812,-45) scale(1)">
        <path fill="#ffffff"
              d="M89.91 76.23 l-7.83 5.49 c-1.08 9.54 -5.4 18.9 -12.69 26.28 l-7.38 -7.38 c5.31 -5.4 8.46 -12.06 9.54 -18.9 l-51.39 0 c1.08 6.84 4.23 13.5 9.54 18.9 l-7.38 7.38 c-7.29 -7.38 -11.61 -16.74 -12.69 -26.28 l-7.83 -5.04 l7.83 -5.4 c1.08 -9.63 5.4 -18.99 12.78 -26.28 l7.29 7.29 c-5.31 5.4 -8.46 12.06 -9.54 18.99 l51.39 0 c-1.08 -6.93 -4.23 -13.59 -9.54 -18.99 l7.38 -7.29 c7.29 7.29 11.61 16.65 12.69 26.28 z"></path>
    </g>
</svg>